<?xml version="1.0" encoding="utf-8"?>
<!-- Generator: Adobe Illustrator 27.4.1, SVG Export Plug-In . SVG Version: 6.00 Build 0)  -->
<svg version="1.1" id="Layer_1" xmlns="http://www.w3.org/2000/svg" xmlns:xlink="http://www.w3.org/1999/xlink" x="0px" y="0px"
	 viewBox="0 0 500 300" style="enable-background:new 0 0 500 300;" xml:space="preserve">
<style type="text/css">
	.st0{fill:#FFFFFF;}
</style>
<g>
	<polyline class="st0" points="182.3,2.6 182.3,28.8 205.3,28.8 205.3,121.1 231.4,121.1 231.4,28.8 255.8,28.8 255.8,49.7 
		282,25.1 282,2.6 	"/>
	<polygon class="st0" points="287.4,126.7 261.2,126.7 261.2,238.5 320.1,297.4 320.1,258.1 287.4,225.5 	"/>
	<path class="st0" d="M440.5,171.5L440.5,171.5l44.8-44.8h-86.7h-37.5H294v97.4l26.1,24.9v-57h52.3l26.1-26.1h-78.4v-13.1h40.9h37.5
		h21.3l-50.4,50.4c0,0,0,0,0,0l-41.9,41.9h124.2v-26.1h-58.8L440.5,171.5z"/>
	<polygon class="st0" points="40.8,124.7 67,99.7 67,28.8 106.2,28.8 77,68 106.2,68 14.7,159.5 14.7,198.7 145.4,68 145.4,41.8 
		132.4,41.8 145.4,28.8 145.4,2.6 40.8,2.6 	"/>
	<polygon class="st0" points="177.2,2.6 151,2.6 151,28.8 151,121.1 177.2,121.1 	"/>
	<polygon class="st0" points="119.3,179.7 93.2,153.6 67,179.7 67,155.4 40.8,180.3 40.8,245.1 93.2,192.8 145.4,245.1 145.4,75.2 
		119.3,101.8 	"/>
	<path class="st0" d="M151,168v37.8v39.3h104.6v-43.6V168v-41.4H151V168z M177.2,201.5V168v-15.2h52.3V168v33.5v17.4h-52.3V201.5z"
		/>
</g>
</svg>
