<?xml version="1.0" encoding="utf-8"?>
<!-- Generator: Adobe Illustrator 27.2.0, SVG Export Plug-In . SVG Version: 6.00 Build 0)  -->
<svg version="1.1" id="Layer_1" xmlns="http://www.w3.org/2000/svg" xmlns:xlink="http://www.w3.org/1999/xlink" x="0px" y="0px"
	 viewBox="0 0 900 330.29" style="enable-background:new 0 0 900 330.29;" xml:space="preserve">
<style type="text/css">
	.st0{fill:#231F20;}
</style>
<g>
	<polygon class="st0" points="35.31,230.71 69.54,198.1 69.54,105.17 120.9,105.17 82.58,156.53 120.9,156.53 1.07,276.36 
		1.07,327.71 172.25,156.53 172.25,122.29 155.13,122.29 172.25,105.17 172.25,70.94 35.31,70.94 	"/>
	<polygon class="st0" points="213.82,70.94 179.59,70.94 179.59,105.17 179.59,226 213.82,226 	"/>
	<polygon class="st0" points="639.61,70.39 605.37,70.39 605.37,216.89 682.4,293.93 682.4,242.57 639.61,199.78 	"/>
	<path class="st0" d="M840.1,129.09h-0.06l58.69-58.69H785.27h-49.16h-87.79v127.57l34.24,32.61v-74.59h68.47l34.24-34.24H682.56
		v-17.12h53.55h49.16h27.88l-65.94,65.94c0.02,0,0.04-0.01,0.06-0.01l-54.89,54.89H855v-34.24h-77.03L840.1,129.09z"/>
	<polygon class="st0" points="419.51,139.86 385.28,105.63 351.04,139.86 351.04,108.07 316.81,140.68 316.81,225.45 385.28,156.98 
		453.75,225.45 453.75,3.01 419.51,37.87 	"/>
	<path class="st0" d="M461.09,124.5v49.54v51.41h136.95v-57.04v-43.83V70.39H461.09V124.5z M495.32,168.41v-43.83v-19.95h68.47
		v19.95v43.83v22.81h-68.47V168.41z"/>
	<polyline class="st0" points="220.49,70.94 220.49,105.17 250.57,105.17 250.57,226 284.81,226 284.81,105.17 316.81,105.17 
		316.81,132.6 351.04,100.38 351.04,70.94 	"/>
</g>
</svg>
